<svg xmlns="http://www.w3.org/2000/svg" xmlns:xlink="http://www.w3.org/1999/xlink" width="100" height="38" viewBox="0 0 100 38">
  <defs>
    <clipPath id="clip-_100x38_WeXL">
      <rect width="100" height="38"/>
    </clipPath>
  </defs>
  <g id="_100x38_WeXL" data-name="100x38 WeXL" clip-path="url(#clip-_100x38_WeXL)">
    <g id="Group_35194" data-name="Group 35194" transform="translate(14 3)">
      <path id="Path_7651" data-name="Path 7651" d="M176.3,206.655l-3,17.82a1.381,1.381,0,0,1-.523.839,1.579,1.579,0,0,1-.99.316h-4.015a1.535,1.535,0,0,1-.99-.33,1.319,1.319,0,0,1-.5-.852l-2.063-12.4q-.22-1.21-.33-2.393h-.522q0,.083-.124,1.018t-.206,1.4l-2.035,12.375a1.3,1.3,0,0,1-.509.852,1.592,1.592,0,0,1-1,.33h-4.015a1.6,1.6,0,0,1-.976-.316,1.36,1.36,0,0,1-.536-.839l-3-17.82h4.29l1.843,13.173q.165,1.237.247,2.75h.55q.083-.77.413-2.75l2.035-11.88a1.5,1.5,0,0,1,.481-.935,1.448,1.448,0,0,1,1-.357h3.63a1.409,1.409,0,0,1,.976.357,1.5,1.5,0,0,1,.481.935l2.035,11.908q.33,2.035.385,2.723h.578q.11-1.568.247-2.7l1.87-13.228Zm8.139,13.558h-4.9a2.81,2.81,0,0,0,.894,1.994,4.056,4.056,0,0,0,2.324.509,49.319,49.319,0,0,0,5.06-.3l.385,2.53a13.931,13.931,0,0,1-5.913,1.018q-3.823,0-5.445-1.65t-1.623-5.445q0-3.988,1.581-5.583t5.321-1.6q3.383,0,4.9,1.169a4.286,4.286,0,0,1,1.54,3.561,3.8,3.8,0,0,1-.976,2.846,4.4,4.4,0,0,1-3.149.949Zm-4.978-2.448h3.85a1.177,1.177,0,0,0,1-.357,1.759,1.759,0,0,0,.261-1.045,1.57,1.57,0,0,0-.495-1.334,3.188,3.188,0,0,0-1.815-.371,2.9,2.9,0,0,0-2.145.619,4.075,4.075,0,0,0-.66,2.489Z" transform="translate(-150.968 -193.96)" fill="#f6b517" fill-rule="evenodd"/>
      <path id="Path_7652" data-name="Path 7652" d="M514.1,203.4v14.657a1.485,1.485,0,0,0,.356,1.11,1.673,1.673,0,0,0,1.181.342h6.745l.2,3.3a82.525,82.525,0,0,1-8.31.313,4.537,4.537,0,0,1-3.387-1.138,4.174,4.174,0,0,1-1.11-3.045V203.4Z" transform="translate(-454.487 -191.211)" fill="#f6b517" fill-rule="evenodd"/>
      <path id="Path_7657" data-name="Path 7657" d="M373.254,136.97l4.319-.014,7.822,7.9h.441l20.39-20.592h4.3L389.26,146.274l4.955,9.809h-4.391l-4.218-8.783-4.24,8.8H377l4.991-9.8-8.739-9.328Z" transform="translate(-339.003 -124.266)" fill="#002843" fill-rule="evenodd"/>
      <path id="Path_7658" data-name="Path 7658" d="M434.117,295.975h5.995l-3.034-6.356-2.961,6.356Z" transform="translate(-390.488 -264.14)" fill="#e4001b" fill-rule="evenodd"/>
    </g>
  </g>
</svg>
